<svg id="Icons" version="1.1" viewBox="0 0 32 32" xml:space="preserve" xmlns="http://www.w3.org/2000/svg" enable-background="new 0 0 32 32"><path d="M26 27H6c-1.1 0-2-.9-2-2V12c0-1.1.9-2 2-2h20c1.1 0 2 .9 2 2v13c0 1.1-.9 2-2 2z" fill="none" stroke="#ffffff" stroke-width="2" stroke-linecap="round" stroke-linejoin="round" stroke-miterlimit="10" class="stroke-000000"></path><path d="M22.6 18H9.4c-3 0-5.4-2.4-5.4-5.4V12c0-1.1.9-2 2-2h20c1.1 0 2 .9 2 2v.6c0 3-2.4 5.4-5.4 5.4zM10 20v-2M22 20v-2M9.3 10c.9-2.9 3.5-5 6.7-5s5.8 2.1 6.7 5" fill="none" stroke="#ffffff" stroke-width="2" stroke-linecap="round" stroke-linejoin="round" stroke-miterlimit="10" class="stroke-000000"></path></svg>